# xmcd CD database file
#
# Track frame offsets:
#	150
#	16625
#	30466
#	48136
#	63097
#	79153
#	94993
#	108807
#	126137
#	141188
#	157053
#	171127
#	182202
#
# Disc length: 2569 seconds
#
# Revision: 5
# Processed by: cddbd v1.5.2PL0 Copyright (c) Steve Scherf et al.
# Submitted via: CDex 1.51
#
DISCID=9d0a070d
DTITLE=A.J. Croce - Fit to Serve
DYEAR=1998
DGENRE=Blues
TTITLE0=Fit to Serve
TTITLE1=I Don't Mind
TTITLE2=Lover's Seranade
TTITLE3=Trouble in Mind
TTITLE4=Texas Ruby
TTITLE5=Uncommon Sense
TTITLE6=I'll Get Through
TTITLE7=Cry to Me
TTITLE8=So in Love
TTITLE9=Count the Ways
TTITLE10=Too Late
TTITLE11=Judgement Day
TTITLE12=Nobody Else
EXTD=YEAR: 1998
EXTT0=
EXTT1=
EXTT2=
EXTT3=
EXTT4=
EXTT5=
EXTT6=
EXTT7=
EXTT8=
EXTT9=
EXTT10=
EXTT11=
EXTT12=
PLAYORDER=
